<svg width="42" height="30" viewBox="0 0 42 30" fill="none" xmlns="http://www.w3.org/2000/svg">
<path d="M36.0422 6.72923H35.8856C35.7584 6.39104 35.5595 6.08436 35.3027 5.83022C35.0458 5.57607 34.737 5.38047 34.3975 5.25682L21.8664 0.698625C21.3101 0.49499 20.6997 0.49499 20.1434 0.698625L7.61224 5.25682C7.27272 5.38047 6.96396 5.57607 6.70711 5.83022C6.45026 6.08436 6.2514 6.39104 6.12417 6.72923H5.96753C4.63942 6.73336 3.36688 7.26278 2.42775 8.20191C1.48863 9.14103 0.959209 10.4136 0.955078 11.7417L0.955078 15.501C0.959209 16.8291 1.48863 18.1017 2.42775 19.0408C3.36688 19.9799 4.63942 20.5093 5.96753 20.5135H6.78205C7.81587 22.7691 9.80519 24.7427 12.6717 26.3404C15.9768 28.1731 19.5011 29.0033 20.488 29.2069L21.0049 29.2539L21.5218 29.2069C22.5086 29.0033 26.033 28.1731 29.3381 26.3404C32.2046 24.7427 34.1939 22.7691 35.2277 20.5135H36.0422C37.3703 20.5093 38.6429 19.9799 39.582 19.0408C40.5211 18.1017 41.0506 16.8291 41.0547 15.501V11.7417C41.0506 10.4136 40.5211 9.14103 39.582 8.20191C38.6429 7.26278 37.3703 6.73336 36.0422 6.72923ZM5.96753 18.0072C5.30284 18.0072 4.66537 17.7432 4.19536 17.2732C3.72535 16.8032 3.4613 16.1657 3.4613 15.501V11.7417C3.4613 11.077 3.72535 10.4395 4.19536 9.96951C4.66537 9.4995 5.30284 9.23546 5.96753 9.23546V16.7541C5.96709 17.1736 5.99851 17.5925 6.06151 18.0072H5.96753ZM27.2704 19.2604H14.7393C14.407 19.2604 14.0882 19.1283 13.8532 18.8933C13.6182 18.6583 13.4862 18.3396 13.4862 18.0072C13.4862 17.6749 13.6182 17.3562 13.8532 17.1212C14.0882 16.8862 14.407 16.7541 14.7393 16.7541H27.2704C27.6028 16.7541 27.9215 16.8862 28.1565 17.1212C28.3915 17.3562 28.5236 17.6749 28.5236 18.0072C28.5236 18.3396 28.3915 18.6583 28.1565 18.8933C27.9215 19.1283 27.6028 19.2604 27.2704 19.2604ZM27.2704 14.2479H14.7393C14.407 14.2479 14.0882 14.1159 13.8532 13.8809C13.6182 13.6459 13.4862 13.3271 13.4862 12.9948C13.4862 12.6624 13.6182 12.3437 13.8532 12.1087C14.0882 11.8737 14.407 11.7417 14.7393 11.7417H27.2704C27.6028 11.7417 27.9215 11.8737 28.1565 12.1087C28.3915 12.3437 28.5236 12.6624 28.5236 12.9948C28.5236 13.3271 28.3915 13.6459 28.1565 13.8809C27.9215 14.1159 27.6028 14.2479 27.2704 14.2479ZM38.5485 15.501C38.5485 16.1657 38.2844 16.8032 37.8144 17.2732C37.3444 17.7432 36.7069 18.0072 36.0422 18.0072H35.9483C36.0113 17.5925 36.0427 17.1736 36.0422 16.7541V9.23546C36.7069 9.23546 37.3444 9.4995 37.8144 9.96951C38.2844 10.4395 38.5485 11.077 38.5485 11.7417V15.501Z" fill="#0FE3AF"/>
</svg>
