<svg width="37" height="33" viewBox="0 0 37 33" fill="none" xmlns="http://www.w3.org/2000/svg">
<path d="M26.5582 0.365723C25.0085 0.365723 23.4801 0.72653 22.094 1.41957C20.708 2.11261 19.5023 3.11885 18.5725 4.3586C17.3154 2.68253 15.5628 1.44447 13.5631 0.819778C11.5633 0.19509 9.41762 0.215451 7.43004 0.877976C5.44247 1.5405 3.71373 2.8116 2.48871 4.51123C1.26369 6.21085 0.604492 8.25283 0.604492 10.3479C0.604492 22.3099 17.2249 31.7431 17.9236 32.1424C18.1216 32.2537 18.3453 32.311 18.5725 32.3088C18.7998 32.3126 19.0239 32.2552 19.2213 32.1424C22.282 30.3531 25.1528 28.2571 27.7893 25.8869C33.5957 20.6629 36.5404 15.4388 36.5404 10.3479C36.5404 7.70048 35.4887 5.16147 33.6167 3.28944C31.7447 1.41742 29.2057 0.365723 26.5582 0.365723Z" fill="#0FE3AF"/>
</svg>
