<svg width="31" height="31" viewBox="0 0 31 31" fill="none" xmlns="http://www.w3.org/2000/svg">
<path d="M28.0021 2.59319C26.516 1.11177 24.5032 0.279907 22.4049 0.279907C20.3065 0.279907 18.2938 1.11177 16.8077 2.59319L2.55477 16.8461C1.0703 18.3306 0.236328 20.3439 0.236328 22.4433C0.236328 24.5427 1.0703 26.5561 2.55477 28.0405C4.03925 29.525 6.05263 30.359 8.152 30.359C10.2514 30.359 12.2647 29.525 13.7492 28.0405L28.0021 13.7876C29.4799 12.2996 30.3093 10.2876 30.3093 8.19042C30.3093 6.09326 29.4799 4.0812 28.0021 2.59319ZM26.3096 12.0951L20.0294 18.3901L12.2052 10.5659L18.5002 4.28572C19.01 3.7677 19.6178 3.35629 20.2882 3.07547C20.9585 2.79465 21.6781 2.65003 22.4049 2.65003C23.1317 2.65003 23.8512 2.79465 24.5216 3.07547C25.192 3.35629 25.7998 3.7677 26.3096 4.28572C26.824 4.79756 27.2322 5.40601 27.5108 6.0761C27.7894 6.7462 27.9328 7.46473 27.9328 8.19042C27.9328 8.91611 27.7894 9.63464 27.5108 10.3047C27.2322 10.9748 26.824 11.5833 26.3096 12.0951ZM24.5131 8.62098C24.623 8.73218 24.7095 8.86423 24.7676 9.00936C24.8257 9.15449 24.8542 9.30977 24.8515 9.46607C24.8487 9.62237 24.8147 9.77655 24.7515 9.91953C24.6883 10.0625 24.5972 10.1914 24.4834 10.2987L20.8608 13.8025C20.7496 13.9124 20.6176 13.9989 20.4724 14.057C20.3273 14.1151 20.172 14.1436 20.0157 14.1408C19.8594 14.1381 19.7052 14.1041 19.5623 14.0409C19.4193 13.9777 19.2904 13.8865 19.1831 13.7728C19.0733 13.6616 18.9867 13.5295 18.9286 13.3844C18.8705 13.2393 18.842 13.084 18.8448 12.9277C18.8475 12.7714 18.8815 12.6172 18.9447 12.4742C19.0079 12.3313 19.0991 12.2024 19.2128 12.0951L22.8354 8.59128C23.062 8.37305 23.3659 8.25362 23.6804 8.25919C23.9949 8.26475 24.2944 8.39487 24.5131 8.62098Z" fill="#0FE3AF"/>
</svg>
