<svg width="34" height="34" viewBox="0 0 34 34" fill="none" xmlns="http://www.w3.org/2000/svg">
<path d="M33.0435 13.2377V20.7027C33.0435 21.3626 32.7813 21.9956 32.3146 22.4622C31.848 22.9289 31.2151 23.191 30.5551 23.191H23.0902V30.656C23.0902 31.3159 22.828 31.9488 22.3614 32.4155C21.8947 32.8821 21.2618 33.1443 20.6019 33.1443H13.1369C12.477 33.1443 11.8441 32.8821 11.3774 32.4155C10.9108 31.9488 10.6486 31.3159 10.6486 30.656V23.191H3.18363C2.52369 23.191 1.89077 22.9289 1.42412 22.4622C0.957474 21.9956 0.695313 21.3626 0.695312 20.7027V13.2377C0.695312 12.5778 0.957474 11.9449 1.42412 11.4782C1.89077 11.0116 2.52369 10.7494 3.18363 10.7494H10.6486V3.28446C10.6486 2.62452 10.9108 1.9916 11.3774 1.52495C11.8441 1.0583 12.477 0.796143 13.1369 0.796143H20.6019C21.2618 0.796143 21.8947 1.0583 22.3614 1.52495C22.828 1.9916 23.0902 2.62452 23.0902 3.28446V10.7494H30.5551C31.2151 10.7494 31.848 11.0116 32.3146 11.4782C32.7813 11.9449 33.0435 12.5778 33.0435 13.2377Z" fill="#0FE3AF"/>
</svg>
