<svg width="44" height="44" viewBox="0 0 44 44" fill="none" xmlns="http://www.w3.org/2000/svg">
<circle cx="21.8865" cy="21.7155" r="21.5574" fill="#0FE3AF"/>
<path d="M29.185 25.373C29.0072 25.1837 28.3796 24.6239 27.2258 23.8832C26.0636 23.136 25.2064 22.6702 24.9606 22.5616C24.9389 22.5519 24.915 22.5484 24.8915 22.5514C24.868 22.5543 24.8457 22.5636 24.8271 22.5782C24.431 22.8871 23.7642 23.4544 23.7285 23.4851C23.4976 23.6829 23.4976 23.6829 23.3086 23.6213C22.9762 23.5123 21.9437 22.9641 21.044 22.0623C20.1443 21.1606 19.5677 20.1025 19.4588 19.7705C19.3965 19.5812 19.3965 19.5812 19.595 19.3503C19.6256 19.3145 20.1933 18.6477 20.5022 18.252C20.5168 18.2334 20.5261 18.2111 20.5291 18.1876C20.532 18.1641 20.5285 18.1402 20.5189 18.1185C20.4102 17.8723 19.9444 17.0155 19.1972 15.8533C18.4555 14.6999 17.8964 14.0723 17.707 13.8945C17.6897 13.8781 17.6682 13.8667 17.6449 13.8615C17.6216 13.8563 17.5973 13.8574 17.5746 13.8649C16.9127 14.0923 16.2741 14.3825 15.6675 14.7315C15.0819 15.072 14.5275 15.4634 14.0108 15.9013C13.9928 15.9166 13.9792 15.9366 13.9717 15.959C13.9641 15.9815 13.9628 16.0055 13.9679 16.0287C14.0391 16.3603 14.3793 17.745 15.4349 19.6629C16.5121 21.6203 17.2585 22.6232 18.8404 24.1995C20.4222 25.7759 21.4567 26.5673 23.4162 27.6444C25.3341 28.7001 26.7195 29.0406 27.0505 29.1111C27.0736 29.1162 27.0978 29.1148 27.1202 29.1073C27.1427 29.0997 27.1627 29.0862 27.1782 29.0682C27.616 28.5515 28.0073 27.9971 28.3476 27.4115C28.6965 26.8049 28.9868 26.1663 29.2143 25.5045C29.2215 25.482 29.2227 25.4579 29.2175 25.4348C29.2124 25.4117 29.2011 25.3904 29.185 25.373V25.373Z" fill="#0152A8"/>
</svg>
