<svg width="44" height="44" viewBox="0 0 44 44" fill="none" xmlns="http://www.w3.org/2000/svg">
<circle cx="21.7087" cy="21.7155" r="21.5574" fill="#0FE3AF"/>
<path d="M28.6428 15.0478H15.4749C14.8931 15.0484 14.3352 15.2728 13.9238 15.6718C13.5123 16.0707 13.2809 16.6117 13.2803 17.1759V26.2965C13.2809 26.8607 13.5123 27.4017 13.9238 27.8007C14.3352 28.1996 14.8931 28.424 15.4749 28.4247H28.6428C29.2246 28.424 29.7825 28.1996 30.1939 27.8007C30.6054 27.4017 30.8368 26.8607 30.8374 26.2965V17.1759C30.8368 16.6117 30.6054 16.0707 30.1939 15.6718C29.7825 15.2728 29.2246 15.0484 28.6428 15.0478V15.0478ZM28.087 18.568L22.4437 22.8242C22.3336 22.9072 22.1982 22.9522 22.0588 22.9522C21.9195 22.9522 21.784 22.9072 21.674 22.8242L16.0306 18.568C15.9643 18.5194 15.9086 18.4586 15.8668 18.3889C15.8249 18.3193 15.7978 18.2424 15.7869 18.1625C15.776 18.0826 15.7816 18.0014 15.8033 17.9237C15.825 17.8459 15.8625 17.7731 15.9135 17.7095C15.9645 17.6459 16.028 17.5928 16.1004 17.5532C16.1727 17.5136 16.2525 17.4883 16.335 17.4789C16.4175 17.4694 16.5012 17.476 16.581 17.4982C16.6609 17.5203 16.7355 17.5577 16.8003 17.608L22.0588 21.5739L27.3174 17.608C27.4488 17.5117 27.6141 17.4695 27.7775 17.4905C27.9408 17.5114 28.0891 17.5939 28.1903 17.72C28.2914 17.8462 28.3373 18.0058 28.318 18.1645C28.2986 18.3232 28.2157 18.4681 28.087 18.568Z" fill="#0152A8"/>
</svg>
