<svg width="15" height="15" viewBox="0 0 15 15" fill="none" xmlns="http://www.w3.org/2000/svg">
<path id="Vector" d="M7.51367 0.708984C6.1292 0.708984 4.77583 1.11953 3.62468 1.8887C2.47354 2.65787 1.57633 3.75112 1.04652 5.0302C0.516705 6.30928 0.378082 7.71675 0.648178 9.07462C0.918275 10.4325 1.58496 11.6798 2.56393 12.6587C3.54289 13.6377 4.79017 14.3044 6.14804 14.5745C7.50591 14.8446 8.91337 14.706 10.1925 14.1761C11.4715 13.6463 12.5648 12.7491 13.334 11.598C14.1031 10.4468 14.5137 9.09345 14.5137 7.70898C14.5101 5.85356 13.7715 4.07515 12.4595 2.76317C11.1475 1.45118 9.3691 0.712542 7.51367 0.708984ZM10.3339 7.26475L7.91079 9.95706C7.86034 10.0121 7.79899 10.0561 7.73062 10.0862C7.66225 10.1163 7.58837 10.1319 7.51367 10.1319C7.43898 10.1319 7.3651 10.1163 7.29673 10.0862C7.22836 10.0561 7.16701 10.0121 7.11656 9.95706L4.69348 7.26475C4.6007 7.15886 4.55308 7.02084 4.56082 6.88027C4.56857 6.73969 4.63106 6.60774 4.73492 6.51268C4.83878 6.41763 4.97573 6.36703 5.11645 6.37173C5.25716 6.37643 5.39043 6.43605 5.48771 6.53783L7.51367 8.78591L9.53964 6.53783C9.58688 6.48391 9.64442 6.43996 9.70888 6.40858C9.77334 6.37719 9.84341 6.35899 9.915 6.35505C9.98658 6.3511 10.0582 6.36149 10.1257 6.38561C10.1933 6.40972 10.2553 6.44708 10.3082 6.49548C10.3611 6.54389 10.4037 6.60236 10.4337 6.66749C10.4637 6.73261 10.4804 6.80306 10.4828 6.87471C10.4852 6.94637 10.4732 7.01778 10.4477 7.08475C10.4221 7.15173 10.3834 7.21293 10.3339 7.26475Z" fill="#0152A8"/>
</svg>
